<?xml version="1.0" standalone="yes"?>

<svg version="1.1" viewBox="0.0 0.0 960.0 720.0" fill="none" stroke="none" stroke-linecap="square" stroke-miterlimit="10" xmlns="http://www.w3.org/2000/svg" xmlns:xlink="http://www.w3.org/1999/xlink"><clipPath id="p.0"><path d="m0 0l960.0 0l0 720.0l-960.0 0l0 -720.0z" clip-rule="nonzero"></path></clipPath><g clip-path="url(#p.0)"><path fill="#ffffff" d="m0 0l960.0 0l0 720.0l-960.0 0z" fill-rule="evenodd"></path><path fill="#00ff00" d="m101.02362 169.27225l0 0c0 -52.669594 42.697144 -95.36674 95.366745 -95.36674l567.21924 0c25.292847 0 49.549744 10.047539 67.43451 27.932274c17.884705 17.884727 27.932251 42.141632 27.932251 67.43446l0 381.45547c0 52.669617 -42.697144 95.36676 -95.36676 95.36676l-567.21924 0l0 0c-52.6696 0 -95.366745 -42.697144 -95.366745 -95.36676z" fill-rule="evenodd"></path><path stroke="#000000" stroke-width="1.0" stroke-linejoin="round" stroke-linecap="butt" d="m101.02362 169.27225l0 0c0 -52.669594 42.697144 -95.36674 95.366745 -95.36674l567.21924 0c25.292847 0 49.549744 10.047539 67.43451 27.932274c17.884705 17.884727 27.932251 42.141632 27.932251 67.43446l0 381.45547c0 52.669617 -42.697144 95.36676 -95.36676 95.36676l-567.21924 0l0 0c-52.6696 0 -95.366745 -42.697144 -95.366745 -95.36676z" fill-rule="evenodd"></path><path fill="#000000" fill-opacity="0.0" d="m306.43832 154.58267l637.2914 0l0 410.83463l-637.2914 0z" fill-rule="evenodd"></path><path fill="#000000" d="m322.46957 255.74268l0 -68.71875l25.78125 0q7.875 0 12.625 2.09375q4.765625 2.078125 7.453125 6.421875q2.703125 4.328125 2.703125 9.0625q0 4.40625 -2.390625 8.296875q-2.390625 3.890625 -7.21875 6.28125q6.234375 1.828125 9.578125 6.234375q3.359375 4.40625 3.359375 10.40625q0 4.828125 -2.046875 8.984375q-2.03125 4.140625 -5.03125 6.390625q-3.0 2.25 -7.53125 3.40625q-4.515625 1.140625 -11.078125 1.140625l-26.203125 0zm9.09375 -39.84375l14.859375 0q6.046875 0 8.671875 -0.796875q3.46875 -1.03125 5.21875 -3.421875q1.765625 -2.390625 1.765625 -6.0q0 -3.421875 -1.640625 -6.015625q-1.640625 -2.609375 -4.6875 -3.5625q-3.046875 -0.96875 -10.453125 -0.96875l-13.734375 0l0 20.765625zm0 31.734375l17.109375 0q4.40625 0 6.1875 -0.328125q3.140625 -0.5625 5.25 -1.875q2.109375 -1.3125 3.46875 -3.8125q1.359375 -2.515625 1.359375 -5.796875q0 -3.84375 -1.96875 -6.671875q-1.96875 -2.84375 -5.46875 -3.984375q-3.484375 -1.15625 -10.046875 -1.15625l-15.890625 0l0 23.625zm54.046875 8.109375l0 -68.71875l8.4375 0l0 68.71875l-8.4375 0zm18.375 -24.890625q0 -13.828125 7.6875 -20.484375q6.421875 -5.53125 15.65625 -5.53125q10.265625 0 16.78125 6.734375q6.515625 6.71875 6.515625 18.578125q0 9.609375 -2.890625 15.125q-2.875 5.5 -8.390625 8.546875q-5.5 3.046875 -12.015625 3.046875q-10.453125 0 -16.90625 -6.703125q-6.4375 -6.703125 -6.4375 -19.3125zm8.671875 0q0 9.5625 4.171875 14.328125q4.171875 4.75 10.5 4.75q6.28125 0 10.453125 -4.78125q4.171875 -4.78125 4.171875 -14.578125q0 -9.234375 -4.203125 -13.984375q-4.1875 -4.765625 -10.421875 -4.765625q-6.328125 0 -10.5 4.734375q-4.171875 4.734375 -4.171875 14.296875zm80.34375 6.65625l8.296875 1.078125q-1.359375 8.578125 -6.96875 13.4375q-5.59375 4.84375 -13.75 4.84375q-10.21875 0 -16.4375 -6.671875q-6.203125 -6.6875 -6.203125 -19.15625q0 -8.0625 2.671875 -14.109375q2.671875 -6.046875 8.125 -9.0625q5.46875 -3.03125 11.890625 -3.03125q8.109375 0 13.265625 4.109375q5.15625 4.09375 6.609375 11.640625l-8.203125 1.265625q-1.171875 -5.015625 -4.15625 -7.546875q-2.96875 -2.53125 -7.1875 -2.53125q-6.375 0 -10.359375 4.578125q-3.984375 4.5625 -3.984375 14.453125q0 10.03125 3.84375 14.578125q3.84375 4.546875 10.03125 4.546875q4.96875 0 8.296875 -3.046875q3.328125 -3.046875 4.21875 -9.375zm15.5625 18.234375l0 -68.71875l8.4374695 0l0 39.1875l19.96875 -20.25l10.921875 0l-19.03125 18.46875l20.953125 31.3125l-10.40625 0l-16.453125 -25.453125l-5.953125 5.71875l0 19.734375l-8.4374695 0zm47.578094 19.171875l-0.9375 -7.921875q2.765625 0.75 4.828125 0.75q2.8125 0 4.5 -0.9375q1.6875 -0.9375 2.765625 -2.625q0.796875 -1.265625 2.578125 -6.28125q0.234375 -0.703125 0.75 -2.0625l-18.890625 -49.875l9.09375 0l10.359375 28.828125q2.015625 5.484375 3.609375 11.53125q1.453125 -5.8125 3.46875 -11.34375l10.640625 -29.015625l8.4375 0l-18.9375 50.625q-3.046875 8.203125 -4.734375 11.296875q-2.25 4.171875 -5.15625 6.109375q-2.90625 1.953125 -6.9375 1.953125q-2.4375 0 -5.4375 -1.03125z" fill-rule="nonzero"></path><path fill="#000000" d="m315.2977 370.74268l26.390625 -68.71875l9.796875 0l28.125 68.71875l-10.359375 0l-8.015625 -20.8125l-28.734375 0l-7.546875 20.8125l-9.65625 0zm19.828125 -28.21875l23.296875 0l-7.171875 -19.03125q-3.28125 -8.671875 -4.875 -14.25q-1.3125 6.609375 -3.703125 13.125l-7.546875 20.15625zm50.71875 -30.796875l0 -9.703125l8.4375 0l0 9.703125l-8.4375 0zm0 59.015625l0 -49.78125l8.4375 0l0 49.78125l-8.4375 0zm21.1875 0l0 -49.78125l7.59375 0l0 7.546875q2.90625 -5.296875 5.359375 -6.984375q2.46875 -1.6875 5.421875 -1.6875q4.265625 0 8.671875 2.71875l-2.90625 7.828125q-3.09375 -1.828125 -6.1875 -1.828125q-2.765625 0 -4.96875 1.671875q-2.203125 1.65625 -3.140625 4.609375q-1.40625 4.5 -1.40625 9.84375l0 26.0625l-8.4375 0zm32.0625 19.078125l0 -68.859375l7.6875 0l0 6.46875q2.71875 -3.796875 6.140625 -5.6875q3.421875 -1.90625 8.296875 -1.90625q6.375 0 11.25 3.28125q4.875 3.28125 7.359375 9.265625q2.484375 5.96875 2.484375 13.09375q0 7.640625 -2.75 13.765625q-2.734375 6.109375 -7.96875 9.375q-5.21875 3.25 -10.984375 3.25q-4.21875 0 -7.578125 -1.78125q-3.34375 -1.78125 -5.5 -4.5l0 24.234375l-8.4375 0zm7.640625 -43.6875q0 9.609375 3.890625 14.203125q3.890625 4.59375 9.421875 4.59375q5.625 0 9.625 -4.75q4.015625 -4.765625 4.015625 -14.75q0 -9.515625 -3.921875 -14.25q-3.90625 -4.734375 -9.34375 -4.734375q-5.390625 0 -9.546875 5.046875q-4.140625 5.03125 -4.140625 14.640625zm45.5625 24.609375l0 -68.71875l8.4375 0l0 68.71875l-8.4375 0zm53.99997 -6.140625q-4.6875 3.984375 -9.03125 5.625q-4.328125 1.640625 -9.296875 1.640625q-8.203125 0 -12.609375 -4.0q-4.4062195 -4.015625 -4.4062195 -10.25q0 -3.65625 1.6562195 -6.671875q1.671875 -3.03125 4.359375 -4.859375q2.703125 -1.828125 6.078125 -2.765625q2.484375 -0.65625 7.5 -1.265625q10.21875 -1.21875 15.046875 -2.90625q0.046875 -1.734375 0.046875 -2.203125q0 -5.15625 -2.390625 -7.265625q-3.234375 -2.859375 -9.609375 -2.859375q-5.953125 0 -8.796875 2.09375q-2.828125 2.078125 -4.1875 7.375l-8.25 -1.125q1.125 -5.296875 3.703125 -8.546875q2.578125 -3.265625 7.453125 -5.015625q4.875 -1.765625 11.296875 -1.765625q6.375 0 10.359375 1.5q3.984375 1.5 5.859375 3.78125q1.875 2.265625 2.625 5.734375q0.421875 2.15625 0.421875 7.78125l0 11.25q0 11.765625 0.53125 14.890625q0.546875 3.109375 2.140625 5.96875l-8.8125 0q-1.3125 -2.625 -1.6875 -6.140625zm-0.703125 -18.84375q-4.59375 1.875 -13.78125 3.1875q-5.203125 0.75 -7.359375 1.6875q-2.15625 0.9375 -3.328125 2.75q-1.171875 1.796875 -1.171875 4.0q0 3.375 2.546875 5.625q2.5625 2.25 7.484375 2.25q4.875 0 8.671875 -2.125q3.796875 -2.140625 5.578125 -5.84375q1.359375 -2.859375 1.359375 -8.4375l0 -3.09375zm21.609375 24.984375l0 -49.78125l7.59375 0l0 7.078125q5.484375 -8.203125 15.84375 -8.203125q4.5 0 8.265625 1.625q3.78125 1.609375 5.65625 4.234375q1.875 2.625 2.625 6.234375q0.46875 2.34375 0.46875 8.203125l0 30.609375l-8.4375 0l0 -30.28125q0 -5.15625 -0.984375 -7.703125q-0.984375 -2.5625 -3.5 -4.078125q-2.5 -1.53125 -5.875 -1.53125q-5.390625 0 -9.3125 3.421875q-3.90625 3.421875 -3.90625 12.984375l0 27.1875l-8.4375 0zm87.46875 -16.03125l8.71875 1.078125q-2.0625 7.640625 -7.640625 11.859375q-5.578125 4.21875 -14.25 4.21875q-10.921875 0 -17.328125 -6.71875q-6.390625 -6.734375 -6.390625 -18.875q0 -12.5625 6.46875 -19.5q6.46875 -6.9375 16.78125 -6.9375q9.984375 0 16.3125 6.796875q6.328125 6.796875 6.328125 19.125q0 0.75 -0.046875 2.25l-37.125 0q0.46875 8.203125 4.640625 12.5625q4.171875 4.359375 10.40625 4.359375q4.640625 0 7.921875 -2.4375q3.28125 -2.4375 5.203125 -7.78125zm-27.703125 -13.640625l27.796875 0q-0.5625 -6.28125 -3.1875 -9.421875q-4.03125 -4.875 -10.453125 -4.875q-5.8125 0 -9.78125 3.890625q-3.953125 3.890625 -4.375 10.40625z" fill-rule="nonzero"></path><path fill="#000000" d="m340.32895 485.74268l0 -60.609375l-22.640625 0l0 -8.109375l54.46875 0l0 8.109375l-22.734375 0l0 60.609375l-9.09375 0zm39.984375 0l0 -49.78125l7.59375 0l0 7.546875q2.90625 -5.296875 5.359375 -6.984375q2.46875 -1.6875 5.421875 -1.6875q4.265625 0 8.671875 2.71875l-2.90625 7.828125q-3.09375 -1.828125 -6.1875 -1.828125q-2.765625 0 -4.96875 1.671875q-2.203125 1.65625 -3.140625 4.609375q-1.40625 4.5 -1.40625 9.84375l0 26.0625l-8.4375 0zm66.140625 -16.03125l8.71875 1.078125q-2.0625 7.640625 -7.640625 11.859375q-5.578125 4.21875 -14.25 4.21875q-10.921875 0 -17.328125 -6.71875q-6.390625 -6.734375 -6.390625 -18.875q0 -12.5625 6.46875 -19.5q6.46875 -6.9375 16.78125 -6.9375q9.984375 0 16.3125 6.796875q6.328125 6.796875 6.328125 19.125q0 0.75 -0.046875 2.25l-37.125 0q0.46875 8.203125 4.640625 12.5625q4.171875 4.359375 10.40625 4.359375q4.640625 0 7.921875 -2.4375q3.28125 -2.4375 5.203125 -7.78125zm-27.703125 -13.640625l27.796875 0q-0.5625 -6.28125 -3.1875 -9.421875q-4.03125 -4.875 -10.453125 -4.875q-5.8125 0 -9.78125 3.890625q-3.953125 3.890625 -4.375 10.40625zm81.09375 13.640625l8.71875 1.078125q-2.0625 7.640625 -7.640625 11.859375q-5.578125 4.21875 -14.25 4.21875q-10.921875 0 -17.328125 -6.71875q-6.390625 -6.734375 -6.390625 -18.875q0 -12.5625 6.46875 -19.5q6.46875 -6.9375 16.78125 -6.9375q9.984375 0 16.3125 6.796875q6.328125 6.796875 6.328125 19.125q0 0.75 -0.046875 2.25l-37.125 0q0.46875 8.203125 4.640625 12.5625q4.171875 4.359375 10.40625 4.359375q4.640625 0 7.921875 -2.4375q3.28125 -2.4375 5.203125 -7.78125zm-27.703125 -13.640625l27.796875 0q-0.5625 -6.28125 -3.1875 -9.421875q-4.03125 -4.875 -10.453125 -4.875q-5.8125 0 -9.78125 3.890625q-3.953125 3.890625 -4.375 10.40625z" fill-rule="nonzero"></path></g></svg>

